<?xml version="1.0" standalone="no"?>
<!DOCTYPE svg PUBLIC "-//W3C//DTD SVG 1.1//EN" "http://www.w3.org/Graphics/SVG/1.1/DTD/svg11.dtd">
<svg xmlns="http://www.w3.org/2000/svg">
<metadata>Copyright (C) 2023 by original authors @ fontello.com</metadata>
<defs>
<font id="dm-social-icons" horiz-adv-x="1000" >
<font-face font-family="dm-social-icons" font-weight="400" font-stretch="normal" units-per-em="1000" ascent="850" descent="-150" />
<missing-glyph horiz-adv-x="1000" />
<glyph glyph-name="tripadvisor" unicode="&#xe800;" d="M959 453c12 50 49 101 49 101h-167c-94 60-208 92-334 92-131 0-249-32-342-93h-157s37-50 49-100c-31-42-49-92-49-148 0-138 112-250 250-250 79 0 149 36 195 93l54-79 53 80c24-30 55-55 92-72 61-28 129-31 192-8 129 48 195 193 148 322-9 23-20 44-34 62l1 0z m-132-336c-50-19-105-17-153 6-35 15-63 40-83 71-8 13-16 26-21 41-6 16-9 33-11 51-3 34 2 69 17 102 23 48 63 85 113 104 103 38 218-15 257-119 38-103-15-218-119-256h0z m-403 76c-36-53-97-88-166-88-110 0-200 90-200 200s90 200 200 200 200-90 200-200c0-7-1-13-2-20-3-34-14-66-32-93v1z m-293 114c0-68 56-123 124-123s124 55 124 123c0 69-56 124-124 124-68 0-124-55-124-124h0z m502 0c0-68 56-123 124-123 68 0 124 55 124 123 0 69-56 124-124 124-68 0-124-55-124-124h0z m-459 0c0 45 36 81 81 81 44 0 81-36 81-81 0-44-36-81-81-81-45 0-82 37-82 81h1z m501 0c0 45 37 81 82 81 44 0 80-36 80-81 0-44-36-81-81-81-45 0-81 37-81 81h0z m-168 296c90 0 171-17 242-49-27-1-53-5-79-15-63-23-113-69-141-130-13-28-20-57-22-86-10 128-115 230-245 232 71 31 153 48 243 48h2z" horiz-adv-x="1000" />

<glyph glyph-name="tiktok" unicode="&#xe813;" d="M815 571c-86 19-149 90-157 177v19h-144v-570c0-67-54-120-121-120-37 0-73 18-95 48-41 53-30 128 23 169 31 23 72 30 109 18v146c-144 20-277-81-297-225-11-81 16-162 72-220 102-104 269-106 373-4 51 49 80 117 80 188v291c58-41 127-64 199-63v142c-14 0-28 2-42 5l0-1z" horiz-adv-x="1000" />

<glyph glyph-name="snapchat" unicode="&#xe901;" d="M509 817c41 0 181-11 247-159 22-50 17-134 12-202l0-3c0-7-1-14-1-21 3-2 8-4 17-4 12 1 27 5 43 13 6 4 14 4 19 4 7 0 15-1 21-4 19-6 31-19 31-34 0-19-17-35-51-49-4-1-9-3-14-5-19-6-48-15-56-34-3-9-2-22 5-36l1-1c2-5 63-144 200-167 10-2 18-11 17-21 0-3-1-6-2-9-10-24-53-42-131-53-2-4-5-16-7-24-1-8-3-15-5-23-4-12-12-17-23-17h-2c-5 0-13 1-22 3-15 3-32 6-53 6-13 0-25-1-38-4-25-4-47-19-72-36-36-25-76-54-137-54-3 0-5 1-8 1h-6c-61 0-101 28-137 53-25 18-46 33-71 37-13 2-26 3-38 3-23 0-40-4-53-6-9-2-17-3-23-3-15 0-22 9-24 17-3 8-4 17-6 24-2 8-4 21-7 24-80 9-123 27-133 51-1 3-2 6-2 9-1 10 7 20 18 22 136 22 197 161 199 167l1 1c7 15 9 27 5 36-8 19-37 28-56 34-5 1-10 3-14 5-46 18-52 39-50 53 4 20 28 33 49 33 6 0 11-1 16-3 17-8 33-12 46-12 9 0 16 2 19 4l-2 24c-4 67-9 152 13 201 64 147 204 158 245 158l17 1h3z" horiz-adv-x="1000" />

<glyph glyph-name="waze" unicode="&#xe902;" d="M1117 471c33-192-71-375-254-463 29-75-30-158-109-158-62 0-112 50-116 108-13 0-146 0-171 0 0-29-17-58-38-79-25-21-54-29-87-29-75 4-129 79-104 150-84 29-163 79-225 158-30 38 0 92 45 92 105 0 71 121 96 246 42 208 263 350 479 350 234 4 446-154 484-375z m-288-417c96 42 184 125 217 229 92 275-146 509-413 509-187 0-383-125-420-304-21-109 12-292-155-292 59-75 134-117 213-142 54 50 146 34 179-33 33-4 179-4 200 0 17 29 46 54 79 58 38 9 71-4 100-25z m-383 450c0 79 117 79 117 0s-117-79-117 0z m267 0c0 79 116 79 116 0s-116-79-116 0z m-280-158c-8 37 50 50 59 12v0c8-45 66-100 146-95s133 50 145 95c9 38 67 25 59-12-13-50-71-138-209-142-95 0-183 63-200 142v0z" horiz-adv-x="1125" />

<glyph glyph-name="google-my-business" unicode="&#xe903;" d="M610 474v322h189l39-311c5-33-6-61-28-89-22-22-50-39-83-39-67 0-117 50-117 117z m-283 11l39 311h188v-322c0-61-50-111-111-111-33 0-61 11-83 39-22 16-33 50-33 83z m-273-11l95 322h161l-39-344c-5-56-55-95-105-95-62 0-112 50-112 111v6z m67-545v384c11-6 28-6 45-6 55 0 111 28 138 78 6-6 12-11 17-22 33-34 78-56 128-56 55 0 111 28 139 78 28-50 78-78 133-78 50 0 95 22 128 56 5 5 11 11 17 22 27-50 77-78 133-78 17 0 28 0 44 6v-384c0-22-16-39-39-39h-844c-22 0-39 17-39 39z m739 117h67c-11-28-39-50-73-50-44 0-77 33-77 78s33 78 77 78c23 0 39-6 56-23h11l39 39v11c-28 23-61 39-100 39-78 0-144-66-144-144s66-145 144-145 139 67 139 145c0 5 0 17 0 22l-6 6h-133l-6-6v-50h6z m33 406l-44 344h161l100-322v-6c0-61-50-105-111-105-50-6-100 39-106 89z" horiz-adv-x="1111.3" />

<glyph glyph-name="whatsapp" unicode="&#xe904;" d="M370 557c10-24 37-84 37-90 3-7 6-14 0-20-4-7-7-14-14-20s-13-17-20-20c-6-7-13-14-6-27s33-53 70-83c46-44 86-54 100-60s20-7 26 3c7 7 30 37 40 47 7 13 17 10 27 6s73-33 83-40c14-6 20-10 24-13 3-7 3-30-7-57-10-30-60-56-83-56-24-4-44-10-150 30-127 50-207 176-210 186-7 7-50 67-50 127s33 90 43 103c10 14 23 17 33 17 7 0 17 0 24 0 13-10 23-10 33-33z m130-607c227 0 410 183 410 407 0 110-43 210-120 290-77 76-180 120-290 120-227 0-413-184-413-407 0-77 23-153 63-217l10-16-40-150 153 40 17-10c63-37 137-57 210-57v0z m350 757c93-94 143-217 143-347 0-270-223-490-496-490v0 0c-84 0-164 20-237 60l-263-67 70 254c-44 73-67 160-67 246 3 267 227 487 500 487 133 0 257-50 350-143z" horiz-adv-x="1000" />

<glyph glyph-name="google-plus" unicode="&#xe905;" d="M318 396v-110h181c-7-46-55-137-181-137-108 0-197 90-197 201 0 111 89 201 197 201 62 0 104-26 127-49l86 83c-55 52-127 83-213 83-176 0-318-142-318-318s142-318 318-318c184 0 306 129 306 311 0 21-3 37-5 53h-301z m682 0h-91v90h-91v-90h-91v-91h91v-91h91v91h91z" horiz-adv-x="1000" />

<glyph glyph-name="picassa" unicode="&#xe9f0;" d="M687 467l-355 354c53 19 109 29 168 29 66 0 129-13 187-36v-347z m62-301v617c148-86 248-246 248-430 0-66-12-129-36-187l-212 0z m-435-62h617c-86-149-247-249-431-249-66 0-129 13-186 36v213z m103 528l-400-399c-9 38-14 79-14 120 0 188 104 351 258 436l156-157z m-166-269v-441c-92 53-165 135-207 233l207 208z" horiz-adv-x="1000" />

<glyph glyph-name="facebook" unicode="&#xea90;" d="M594 663h156v187h-156c-121 0-219-98-219-219v-93h-125v-188h125v-500h188v500h156l31 188h-187v93c0 17 14 32 31 32z" horiz-adv-x="1000" />

<glyph glyph-name="instagram" unicode="&#xea92;" d="M500 760c134 0 149-1 202-3 49-2 75-10 93-17 23-9 40-20 57-37 18-18 29-35 38-58 7-17 15-44 17-93 2-52 3-68 3-202s-1-149-3-202c-2-48-10-75-17-92-9-24-20-40-38-58-17-17-34-28-57-37-18-7-44-15-93-17-53-3-68-3-202-3s-149 0-202 3c-49 2-75 10-92 17-24 9-41 20-58 37-17 18-28 34-37 58-7 17-15 44-18 92-2 53-3 69-3 202s1 150 3 202c3 49 11 75 18 93 9 23 20 40 37 57 17 18 34 29 57 38 18 7 44 15 93 17 53 2 68 3 202 3z m0 90c-136 0-153-1-206-3-53-2-90-11-121-23-33-13-61-30-89-58-28-28-45-56-58-88-12-32-21-69-23-122-2-53-3-70-3-206s1-153 3-206c2-53 11-90 23-121 13-33 30-61 58-89 28-28 56-45 89-58 31-12 68-21 121-23 53-2 70-3 206-3s153 1 206 3c53 2 90 11 121 23 33 13 61 30 89 58s45 56 57 89c13 31 21 68 24 121 2 53 2 70 2 206s0 153-2 206c-3 53-11 90-24 121-12 33-29 61-57 89-28 28-56 45-88 58-32 12-69 21-122 23-53 2-70 3-206 3v0z m0-243c-142 0-257-115-257-257s115-257 257-257 257 115 257 257c0 142-115 257-257 257z m0-424c-92 0-167 75-167 167s75 167 167 167c92 0 167-75 167-167s-75-167-167-167z m327 434c0-33-27-60-60-60s-60 27-60 60c0 33 27 60 60 60s60-27 60-60z" horiz-adv-x="1000" />

<glyph glyph-name="twitter" unicode="&#xea96;" d="M1000 629c-37-16-76-27-118-32 43 25 75 65 91 113-40-23-84-40-131-50-37 40-91 65-150 65-113 0-205-92-205-205 0-16 2-32 6-47-171 9-322 91-423 215-18-31-28-66-28-103 0-71 36-134 91-171-33 1-65 10-93 26 0-1 0-2 0-3 0-99 71-182 165-201-17-5-35-7-54-7-13 0-26 1-39 3 26-81 102-141 192-142-71-55-159-88-255-88-17 0-33 1-49 3 91-59 199-93 315-93 377 0 583 313 583 584 0 9 0 18 0 27 40 29 75 65 102 106z" horiz-adv-x="1000" />

<glyph glyph-name="youtube" unicode="&#xea9d;" d="M990 550c0 0-10 69-40 99-38 40-80 40-100 43-140 10-350 10-350 10h0c0 0-210 0-350-10-19-3-62-3-100-43-30-30-40-99-40-99s-10-81-10-162v-76c0-81 10-162 10-162s10-69 40-99c38-40 88-38 110-43 80-7 340-10 340-10s210 1 350 11c20 2 62 2 100 42 31 30 40 99 40 99s10 81 10 162v76c0 81-10 162-10 162z m-593-330v281l270-141-270-140z" horiz-adv-x="1000" />

<glyph glyph-name="vimeo" unicode="&#xeaa0;" d="M1000 582c-5-97-73-230-204-399-136-177-251-265-345-265-59 0-108 53-148 161-27 99-54 197-81 296-30 107-62 161-96 161-8 0-34-16-79-47l-47 61c50 43 98 86 146 130 66 57 115 86 148 90 78 7 126-46 144-160 19-123 33-199 41-229 22-102 47-153 74-153 20 0 52 33 94 99 42 66 64 117 67 151 6 57-16 86-67 86-24 0-49-6-74-16 49 160 143 239 282 234 102-3 151-69 145-200z" horiz-adv-x="1000" />

<glyph glyph-name="reddit" unicode="&#xeac6;" d="M250 225c0 35 28 63 63 63s62-28 62-63c0-34-28-62-62-62s-63 28-63 62z m375 0c0 35 28 63 63 63s62-28 62-63c0-34-28-62-62-62s-63 28-63 62z m3-134c16 13 40 10 52-6s10-39-6-52c-45-35-113-58-174-58-61 0-129 23-174 58-16 13-19 36-6 52 13 16 36 19 52 6 26-20 77-42 128-42s102 22 128 42z m372 259c0 69-56 125-125 125-47 0-88-26-109-64-64 35-143 58-228 63l75 167 142-41c13-36 48-62 89-62 52 0 94 42 94 93s-42 94-94 94c-36 0-67-20-83-49l-159 46c-18 5-37-4-44-21l-101-227c-84-6-160-29-223-63-21 38-62 64-109 64-69 0-125-56-125-125 0-51 31-95 75-114-8-24-12-48-12-73 0-173 195-313 437-313 242 0 438 140 438 313 0 25-5 49-13 73 44 19 75 63 75 114z m-156 316c19 0 35-15 35-35s-16-35-35-35-35 16-35 35 15 35 35 35z m-781-316c0 35 28 63 62 63 25 0 47-15 57-36-33-25-60-54-80-85-23 9-39 32-39 58z m437-426c-201 0-363 107-363 239s162 238 363 238c201 0 363-107 363-238s-162-239-363-239z m398 368c-20 31-47 60-79 85 10 21 31 36 56 36 35 0 63-28 63-63 0-26-17-49-40-58z" horiz-adv-x="1000" />

<glyph glyph-name="email" unicode="&#xeace;" d="M929 11v428q-18-20-39-37-149-114-238-188-28-24-46-38t-48-27-57-13h-2q-26 0-57 13t-48 27-46 38q-88 74-238 188-21 17-39 37v-428q0-7 6-13t12-5h822q7 0 12 5t6 13z m0 586v14t-1 7-1 7-3 5-5 4-8 2h-822q-7 0-12-6t-6-12q0-94 82-159 108-84 224-176 4-3 20-17t25-21 25-17 28-16 24-5h2q11 0 24 5t28 16 25 17 25 21 20 17q116 92 224 176 30 24 56 65t26 73z m71 21v-607q0-37-26-63t-63-27h-822q-37 0-63 27t-26 63v607q0 37 26 63t63 26h822q37 0 63-26t26-63z" horiz-adv-x="1000" />

<glyph glyph-name="yelp" unicode="&#xead7;" d="M595 212c-17-17-3-48-3-48l127-212c0 0 21-28 39-28 18 0 36 15 36 15l101 143c0 0 10 18 10 34 0 23-34 29-34 29l-238 76c0 0-23 7-38-9z m-12 107c12-21 45-15 45-15l238 70c0 0 32 13 37 30 4 18-6 39-6 39l-113 133c0 0-10 17-30 19-23 2-37-25-37-25l-134-211c0 0-12-21 0-40z m-112 82c27 7 32 48 32 48l-2 337c0 0-4 42-23 53-29 18-38 9-46 8l-197-74c0 0-20-6-30-22-14-23 15-56 15-56l205-279c0 0 20-21 46-15z m-49-137c1 26-31 42-31 42l-212 107c0 0-31 13-47 4-11-7-22-19-23-30l-14-170c0 0-2-30 6-43 11-19 46-6 46-6l248 55c9 6 26 7 27 41z m61-91c-21 11-46-12-46-12l-166-182c0 0-20-28-15-45 5-16 13-24 25-30l166-52c0 0 20-4 35 0 22 6 18 40 18 40l4 247c0 0-1 24-21 34z" horiz-adv-x="1000" />

<glyph glyph-name="rss" unicode="&#xf09e;" d="M214 100q0-45-31-76t-76-31-76 31-31 76 31 76 76 31 76-31 31-76z m286-69q1-15-9-26-10-12-27-12h-75q-14 0-24 9t-11 23q-12 128-103 219t-219 103q-14 1-23 11t-9 24v75q0 16 12 26 9 10 24 10h3q89-7 170-45t145-101q63-63 101-145t45-171z m286-1q1-15-10-26-10-11-26-11h-80q-14 0-25 10t-10 23q-7 120-57 228t-129 188-188 129-227 57q-14 1-24 11t-10 24v80q0 16 11 26 10 10 25 10h1q147-8 280-67t238-164q104-104 164-238t67-280z" horiz-adv-x="785.7" />

<glyph glyph-name="pinterest" unicode="&#xf0d2;" d="M857 350q0-117-57-215t-156-156-215-58q-62 0-122 18 33 52 43 92 6 19 31 118 11-22 40-38t64-16q68 0 121 38t82 105 29 151q0 64-34 120t-96 90-142 36q-59 0-110-17t-86-43-61-61-37-72-12-75q0-58 22-102t66-62q16-7 21 11 1 4 4 17t5 17q3 13-6 24-29 34-29 84 0 84 58 145t153 61q84 0 132-46t47-119q0-95-39-161t-98-67q-34 0-54 25t-13 58q4 19 15 52t17 57 6 43q0 28-15 46t-43 18q-35 0-59-31t-24-80q0-40 14-68l-55-233q-9-39-7-99-115 51-186 157t-71 236q0 117 58 215t155 156 216 58 215-58 156-156 57-215z" horiz-adv-x="857.1" />

<glyph glyph-name="linkedin" unicode="&#xf0e1;" d="M195 501v-553h-184v553h184z m12 171q0-41-29-68t-75-27h-1q-46 0-74 27t-28 68q0 41 29 68t75 27 74-27 29-68z m650-407v-317h-183v296q0 59-23 92t-71 33q-35 0-58-19t-36-48q-6-17-6-45v-309h-184q1 223 1 361t0 165l-1 27h184v-80h-1q11 18 23 31t31 29 49 24 64 9q95 0 153-63t58-186z" horiz-adv-x="857.1" />

<glyph glyph-name="foursquare" unicode="&#xf180;" d="M558 608l21 108q3 13-5 22t-20 10h-397q-13 0-22-10t-8-20v-615q0-4 3 0l162 196q13 15 22 19t26 4h134q12 0 20 8t11 17q13 72 20 106 2 12-6 23t-21 10h-164q-16 0-26 11t-11 27v23q0 16 11 27t26 10h193q10 0 20 7t11 17z m127 124q-9-41-30-149t-39-195-19-97q-4-12-5-18t-8-18-14-19-21-12-33-5h-151q-7 0-12-6-5-5-238-275-12-14-33-16t-27 3q-30 12-30 54v787q0 31 21 58t67 26h495q53 0 71-30t6-88z m0 0l-88-441q2 9 19 97t39 195 30 149z" horiz-adv-x="714.3" />
</font>
</defs>
</svg>
